<svg width="245" height="31" viewBox="0 0 245 31" fill="none" xmlns="http://www.w3.org/2000/svg">
<g clip-path="url(#clip0_1_64)">
<path d="M128.709 30.9089C128.096 30.9089 127.598 30.2068 127.598 29.3409V19.7699L116.937 19.7977C116.492 19.8036 116.082 19.4177 115.909 18.8316C115.737 18.2456 115.831 17.5706 116.149 17.1218L127.935 0.46044C128.368 -0.152437 129.071 -0.153024 129.506 0.458873C129.94 1.07077 129.94 2.06348 129.507 2.67616L119.619 16.6545L128.707 16.6308C128.708 16.6308 128.708 16.6308 128.709 16.6308C129.003 16.6308 129.285 16.7957 129.494 17.0891C129.702 17.3832 129.82 17.7825 129.82 18.1988V29.3407C129.82 30.2068 129.322 30.9089 128.709 30.9089Z" fill="#3860D3"/>
<path d="M151.158 30.9059H145.203C144.589 30.9059 144.092 30.2038 144.092 29.3379C144.092 28.472 144.589 27.77 145.203 27.77H150.048V3.13592H136.559V9.89775C136.559 10.7637 136.062 11.4657 135.449 11.4657C134.835 11.4657 134.338 10.7637 134.338 9.89775V1.56796C134.338 0.702054 134.835 0 135.449 0H151.158C151.772 0 152.269 0.702054 152.269 1.56796V29.3379C152.269 30.2038 151.772 30.9059 151.158 30.9059Z" fill="#3860D3"/>
<path d="M135.449 30.7304C136.25 30.5815 136.814 29.536 136.708 28.3952C136.601 27.2545 135.865 26.4504 135.064 26.5994C134.262 26.7483 133.699 27.7937 133.805 28.9345C133.912 30.0752 134.648 30.8793 135.449 30.7304Z" fill="#3860D3"/>
<path d="M99.3285 17.4661C99.3285 18.617 98.6678 19.5498 97.8525 19.5498C97.0374 19.5498 96.3768 18.617 96.3768 17.4661C96.3768 16.3143 97.0374 15.3825 97.8525 15.3825C98.6678 15.3825 99.3285 16.3143 99.3285 17.4661Z" fill="#1D1D1B"/>
<path d="M66.4521 5.34088H64.3695V25.8018H66.4521V5.34088Z" fill="#1D1D1B"/>
<path d="M9.18727 5.25522C4.12144 5.25522 0 9.88305 0 15.5714C0 21.2596 4.12144 25.8874 9.18727 25.8874C14.2532 25.8874 18.3746 21.2598 18.3746 15.5714C18.3746 9.88305 14.2531 5.25522 9.18727 5.25522ZM9.18727 22.9473C5.26978 22.9473 2.08259 19.6383 2.08259 15.5712C2.08259 11.5039 5.26978 8.19495 9.18727 8.19495C13.1048 8.19495 16.292 11.5039 16.292 15.5712C16.292 19.6385 13.1048 22.9473 9.18727 22.9473Z" fill="#1D1D1B"/>
<path d="M20.6255 15.5714C20.6255 21.2124 24.7116 25.8018 29.7341 25.8018H38.9142V22.8619H29.7341C25.8599 22.8619 22.7081 19.5913 22.7081 15.5714C22.7081 11.5514 25.8599 8.28081 29.7341 8.28081H38.9142V5.34088H29.7341C24.7116 5.34069 20.6255 9.93011 20.6255 15.5714Z" fill="#1D1D1B"/>
<path d="M60.9138 11.5586C60.9138 8.07208 58.364 5.34088 55.1089 5.34088H42.5237V8.28081H55.1089C57.1265 8.28081 58.8312 9.78194 58.8312 11.5586C58.8312 12.5249 58.296 13.481 57.4212 14.1013H42.5238V17.0412H57.421C58.296 17.6611 58.8313 18.6154 58.8313 19.5793C58.8313 21.3586 57.1268 22.8619 55.1091 22.8619H42.5238V25.8016H55.1091C58.3642 25.8016 60.9139 23.0686 60.9139 19.5793C60.9139 18.0651 60.4319 16.6625 59.5734 15.571C60.4317 14.4784 60.9138 13.0745 60.9138 11.5586Z" fill="#1D1D1B"/>
<path d="M69.9539 5.34088V8.28081H77.9481V25.8041H80.0307V8.28081H88.0249V5.34088H69.9539Z" fill="#1D1D1B"/>
<path d="M97.8527 5.25522C92.7943 5.25522 88.6791 10.169 88.6791 16.2088V25.8041H90.7617V16.2088C90.7617 11.7901 93.9427 8.19514 97.8527 8.19514C101.762 8.19514 104.943 11.7901 104.943 16.2088V25.8041H107.026V16.2088C107.026 10.169 102.911 5.25522 97.8527 5.25522Z" fill="#1D1D1B"/>
<path d="M243.889 0H163.318C162.705 0 162.207 0.702054 162.207 1.56796V29.3379C162.207 30.2038 162.705 30.9059 163.318 30.9059H243.889C244.503 30.9059 245 30.2038 245 29.3379V1.56796C245 0.701858 244.503 0 243.889 0Z" fill="#3860D3"/>
<path d="M233.699 15.5714C234.558 14.4789 235.04 13.075 235.04 11.559C235.04 8.07226 232.49 5.34106 229.235 5.34106H216.65V8.28099H229.235C231.253 8.28099 232.957 9.78212 232.957 11.559C232.957 12.578 232.361 13.5852 231.4 14.1997H216.65V16.9436H231.4C232.361 17.5578 232.957 18.5633 232.957 19.5797C232.957 21.359 231.253 22.8622 229.235 22.8622H216.65V25.8022H229.235C232.49 25.8022 235.04 23.069 235.04 19.5797C235.04 18.0653 234.558 16.6629 233.699 15.5714Z" fill="white"/>
<path d="M188.575 14.1014H174.344V5.3389H172.262V25.7914H174.344V17.0414H188.575V25.7914H190.658V5.3389H188.575V14.1014Z" fill="white"/>
<path d="M210.704 15.0203C210.704 19.439 207.524 23.0339 203.614 23.0339C199.704 23.0339 196.523 19.439 196.523 15.0203V5.3389H194.441V15.0203C194.441 21.0601 198.556 25.9738 203.614 25.9738C208.672 25.9738 212.787 21.0603 212.787 15.0203V5.3389H210.704V15.0203Z" fill="white"/>
</g>
<defs>
<clipPath id="clip0_1_64">
<rect width="245" height="31" fill="white"/>
</clipPath>
</defs>
</svg>
