<svg width="1766" height="159" viewBox="0 0 1766 159" fill="none" xmlns="http://www.w3.org/2000/svg">
<path d="M927.447 158.394C923.029 158.394 919.447 154.812 919.447 150.394V101.561L842.658 101.703C839.455 101.733 836.499 99.764 835.256 96.774C834.013 93.784 834.695 90.34 836.983 88.05L921.87 3.04098C924.992 -0.0860219 930.057 -0.0890174 933.184 3.03298C936.31 6.15498 936.314 11.22 933.192 14.346L861.973 85.666L927.432 85.545C927.437 85.545 927.442 85.545 927.447 85.545C929.566 85.545 931.598 86.386 933.098 87.883C934.602 89.384 935.447 91.421 935.447 93.545V150.393C935.447 154.812 931.865 158.394 927.447 158.394Z" fill="#3860D3"/>
<path d="M1089.14 158.38H1046.24C1041.83 158.38 1038.24 154.798 1038.24 150.38C1038.24 145.962 1041.83 142.38 1046.24 142.38H1081.14V16.693H983.99V51.193C983.99 55.611 980.408 59.193 975.99 59.193C971.572 59.193 967.99 55.611 967.99 51.193V8.69299C967.99 4.27499 971.572 0.692993 975.99 0.692993H1089.14C1093.56 0.692993 1097.14 4.27499 1097.14 8.69299V150.38C1097.14 154.798 1093.56 158.38 1089.14 158.38Z" fill="#3860D3"/>
<path d="M975.992 157.484C981.765 156.725 985.823 151.39 985.057 145.57C984.29 139.75 978.99 135.648 973.218 136.407C967.446 137.167 963.388 142.501 964.154 148.322C964.92 154.142 970.22 158.244 975.992 157.484Z" fill="#3860D3"/>
<path d="M715.832 89.808C715.832 95.68 711.073 100.439 705.201 100.439C699.33 100.439 694.572 95.68 694.572 89.808C694.572 83.931 699.33 79.177 705.201 79.177C711.073 79.177 715.832 83.931 715.832 89.808Z" fill="#1D1D1B"/>
<path d="M479.037 27.943H464.037V132.338H479.037V27.943Z" fill="#1D1D1B"/>
<path d="M66.583 27.506C30.096 27.506 0.411011 51.118 0.411011 80.141C0.411011 109.163 30.096 132.775 66.583 132.775C103.071 132.775 132.755 109.164 132.755 80.141C132.755 51.118 103.07 27.506 66.583 27.506ZM66.583 117.774C38.367 117.774 15.411 100.891 15.411 80.14C15.411 59.388 38.367 42.505 66.583 42.505C94.799 42.505 117.755 59.388 117.755 80.14C117.755 100.892 94.799 117.774 66.583 117.774Z" fill="#1D1D1B"/>
<path d="M148.968 80.141C148.968 108.922 178.398 132.338 214.573 132.338H280.693V117.338H214.573C186.669 117.338 163.968 100.651 163.968 80.141C163.968 59.63 186.669 42.943 214.573 42.943H280.693V27.943H214.573C178.398 27.942 148.968 51.358 148.968 80.141Z" fill="#1D1D1B"/>
<path d="M439.147 59.667C439.147 41.878 420.782 27.943 397.337 27.943H306.691V42.943H397.337C411.869 42.943 424.147 50.602 424.147 59.667C424.147 64.597 420.292 69.475 413.991 72.64H306.692V87.64H413.99C420.292 90.803 424.148 95.672 424.148 100.59C424.148 109.668 411.871 117.338 397.338 117.338H306.692V132.337H397.338C420.783 132.337 439.148 118.393 439.148 100.59C439.148 92.864 435.676 85.708 429.493 80.139C435.675 74.564 439.147 67.401 439.147 59.667Z" fill="#1D1D1B"/>
<path d="M504.259 27.943V42.943H561.838V132.35H576.838V42.943H634.417V27.943H504.259Z" fill="#1D1D1B"/>
<path d="M705.202 27.506C668.769 27.506 639.129 52.577 639.129 83.393V132.35H654.129V83.393C654.129 60.848 677.04 42.506 705.202 42.506C733.362 42.506 756.272 60.848 756.272 83.393V132.35H771.272V83.393C771.272 52.577 741.633 27.506 705.202 27.506Z" fill="#1D1D1B"/>
<path d="M1757.04 0.692993H1176.72C1172.3 0.692993 1168.72 4.27499 1168.72 8.69299V150.38C1168.72 154.798 1172.3 158.38 1176.72 158.38H1757.04C1761.46 158.38 1765.04 154.798 1765.04 150.38V8.69299C1765.04 4.27399 1761.46 0.692993 1757.04 0.692993Z" fill="#3860D3"/>
<path d="M1683.65 80.14C1689.83 74.566 1693.3 67.403 1693.3 59.668C1693.3 41.878 1674.94 27.943 1651.49 27.943H1560.85V42.943H1651.49C1666.02 42.943 1678.3 50.602 1678.3 59.668C1678.3 64.867 1674.01 70.006 1667.09 73.141H1560.85V87.141H1667.08C1674.01 90.275 1678.3 95.405 1678.3 100.591C1678.3 109.669 1666.02 117.339 1651.49 117.339H1560.85V132.339H1651.49C1674.94 132.339 1693.3 118.394 1693.3 100.591C1693.3 92.864 1689.83 85.709 1683.65 80.14Z" fill="white"/>
<path d="M1358.64 72.641H1256.14V27.933H1241.14V132.285H1256.14V87.641H1358.64V132.285H1373.64V27.933H1358.64V72.641Z" fill="white"/>
<path d="M1518.03 77.329C1518.03 99.874 1495.11 118.216 1466.95 118.216C1438.79 118.216 1415.88 99.874 1415.88 77.329V27.933H1400.88V77.329C1400.88 108.145 1430.52 133.216 1466.95 133.216C1503.39 133.216 1533.03 108.146 1533.03 77.329V27.933H1518.03V77.329Z" fill="white"/>
</svg>
