<svg width="250" height="99" viewBox="0 0 250 99" fill="none" xmlns="http://www.w3.org/2000/svg">
<path d="M34.8972 10.0846H14.1899V30.8674H34.8972V10.0846Z" fill="#04134E"/>
<path d="M34.8972 39.1799H14.1899V59.9628H34.8972V39.1799Z" fill="#04134E"/>
<path d="M34.8972 68.2753H14.1899V89.0574H34.8972V68.2753Z" fill="#04134E"/>
<path d="M84.5942 10.0846H43.1795V89.0566H63.8869V30.8674H84.5942V10.0846Z" fill="#04134E"/>
<path d="M98.784 99.1419H0V0H98.784V99.1419ZM1.46099 97.6756H97.3231V1.46631H1.46099V97.6756Z" fill="#04134E"/>
<path d="M124.391 3.37328H116.177V8.94454C116.177 12.5575 115.669 14.8831 114.428 16.9147H112.988V22.101H114.62V18.4301H124.489V22.101H126.118V16.9147H124.391V3.37328ZM122.76 16.914H116.255C117.245 15.0591 117.748 12.7115 117.748 9.92257V4.88871H122.76V16.914Z" fill="#04134E"/>
<path d="M138.664 16.914H130.984V11.5978H137.525V10.0824H130.984V4.88871H138.664V3.37328H129.353V18.4301H138.664V16.914Z" fill="#04134E"/>
<path d="M143.851 12.2701H147.791C150.563 12.2701 152.426 10.482 152.426 7.82281C152.426 5.16218 150.563 3.37474 147.791 3.37474H142.221V18.4301H143.851V12.2701ZM143.851 4.88871H147.669C148.835 4.88871 150.795 5.27069 150.795 7.82281C150.795 10.3727 148.835 10.7554 147.669 10.7554H143.851V4.88871Z" fill="#04134E"/>
<path d="M176.366 14.9007H182.736L183.996 18.4294H185.745L180.29 3.54775L180.225 3.37253H178.878L173.357 18.4294H175.107L176.366 14.9007ZM179.55 5.91292L182.198 13.386H176.904L179.55 5.91292Z" fill="#04134E"/>
<path d="M198.877 14.2467C198.877 13.0253 198.466 12.0253 197.65 11.2694C197.373 11.0223 197.142 10.8647 196.795 10.6931C197.05 10.5611 197.239 10.4248 197.472 10.2195C198.245 9.48853 198.654 8.51123 198.654 7.39463C198.654 4.98987 196.865 3.37253 194.202 3.37253H188.612V18.4301H194.364C197.147 18.4301 198.877 16.8252 198.877 14.2467ZM197.245 14.2057C197.245 15.8773 196.095 16.9139 194.241 16.9139H190.242V11.4966H194.241C196.095 11.4974 197.245 12.5348 197.245 14.2057ZM194.08 9.98048H190.242V4.8887H194.08C195.949 4.8887 197.021 5.81834 197.021 7.43715C197.022 9.05303 195.949 9.98048 194.08 9.98048Z" fill="#04134E"/>
<path d="M211.274 10.0824H204.273V3.37474H202.642V18.4301H204.273V11.5978H211.274V18.4301H212.907V3.37474H211.274V10.0824Z" fill="#04134E"/>
<path d="M227.643 6.31324V18.4301H229.295V3.37474H227.901L218.73 15.4909V3.37474H217.078V18.4301H218.472L227.643 6.31324Z" fill="#04134E"/>
<path d="M237.135 2.64158C237.833 3.09028 238.672 3.31755 239.627 3.31755C240.542 3.31755 241.361 3.09028 242.067 2.64158C242.803 2.17016 243.253 1.56384 243.404 0.840948L243.471 0.516159H241.888L241.831 0.704581C241.714 1.07922 241.461 1.37249 241.059 1.60343C240.64 1.84391 240.157 1.96561 239.627 1.96561C238.52 1.96561 237.768 1.54038 237.324 0.666456L237.25 0.516893H235.682L235.772 0.856345C235.965 1.5851 236.424 2.18703 237.135 2.64158Z" fill="#04134E"/>
<path d="M235.118 15.4909V3.37474H233.467V18.4301H234.861L244.033 6.31324V18.4301H245.684V3.37474H244.289L235.118 15.4909Z" fill="#04134E"/>
<path d="M172.186 18.4301L165.664 10.5743L171.985 3.37474H169.944L163.72 10.5868L170.165 18.4301H172.186Z" fill="#04134E"/>
<path d="M155.84 3.46858L155.759 3.37474H153.721L160.04 10.5941L153.518 18.4301H155.539L161.987 10.5868L155.84 3.46858Z" fill="#04134E"/>
<path d="M163.68 3.37474H162.027V18.4301H163.68V3.37474Z" fill="#04134E"/>
<path d="M112.988 71.2189H122.299V69.7042H114.618V64.3903H121.161V62.8734H114.618V57.6812H122.299V56.165H112.988V71.2189Z" fill="#04134E"/>
<path d="M136.834 56.165H134.616L128.251 62.7466V56.165H126.62V71.2189H128.251V64.0347L135.001 71.1361L135.08 71.2189H137.375L129.699 63.3661L136.834 56.165Z" fill="#04134E"/>
<path d="M146.218 55.478C144.036 55.478 142.145 56.2655 140.602 57.8161C139.056 59.3667 138.273 61.2641 138.273 63.4533C138.273 65.6484 139.056 67.5487 140.602 69.0994C142.145 70.6515 144.036 71.4367 146.218 71.4367C148.407 71.4367 150.301 70.6522 151.845 69.0994C153.391 67.5487 154.174 65.6484 154.174 63.4533C154.174 61.2641 153.391 59.3667 151.845 57.8161C150.301 56.2655 148.407 55.478 146.218 55.478ZM146.218 69.8384C144.476 69.8384 142.967 69.2086 141.73 67.9652C140.495 66.7254 139.866 65.207 139.866 63.4533C139.866 61.7062 140.494 60.1915 141.73 58.9495C142.967 57.7083 144.476 57.0763 146.218 57.0763C147.965 57.0763 149.479 57.7076 150.716 58.9495C151.952 60.1915 152.58 61.7062 152.58 63.4533C152.58 65.2078 151.953 66.7254 150.716 67.9652C149.479 69.2086 147.964 69.8384 146.218 69.8384Z" fill="#04134E"/>
<path d="M167.025 62.8082H160.023V56.099H158.392V71.153H160.023V64.3229H167.025V71.153H168.657V56.099H167.025V62.8082Z" fill="#04134E"/>
<path d="M180.804 55.478C178.622 55.478 176.732 56.2655 175.188 57.8161C173.642 59.3667 172.859 61.2641 172.859 63.4533C172.859 65.6484 173.641 67.5487 175.188 69.0994C176.732 70.6515 178.622 71.4367 180.804 71.4367C182.993 71.4367 184.886 70.6522 186.431 69.0994C187.976 67.5487 188.76 65.6484 188.76 63.4533C188.76 61.2641 187.976 59.3667 186.431 57.8161C184.886 56.2655 182.993 55.478 180.804 55.478ZM180.804 69.8384C179.063 69.8384 177.554 69.2086 176.315 67.9652C175.08 66.7254 174.452 65.207 174.452 63.4533C174.452 61.7062 175.079 60.1915 176.315 58.9495C177.553 57.7083 179.063 57.0763 180.804 57.0763C182.551 57.0763 184.064 57.7076 185.302 58.9495C186.538 60.1908 187.167 61.7062 187.167 63.4533C187.167 65.2078 186.538 66.7254 185.302 67.9652C184.064 69.2086 182.551 69.8384 180.804 69.8384Z" fill="#04134E"/>
<path d="M205.059 56.099L199.922 62.8609L194.892 56.2567L194.773 56.099H192.963V71.1478H194.599V58.5925L199.922 65.5817L205.233 58.5947V71.1478H206.87V56.099H205.059Z" fill="#04134E"/>
<path d="M213.555 56.099H211.923V71.153H213.555V56.099Z" fill="#04134E"/>
<path d="M228.823 56.099H226.606L220.24 62.6791V56.099H218.609V71.153H220.24V63.9695L226.992 71.0701L227.07 71.153H229.367L221.689 63.2994L228.823 56.099Z" fill="#04134E"/>
<path d="M235.102 68.2137V56.0976H233.451V71.153H234.845L244.017 59.0331V71.153H245.668V56.0976H244.273L235.102 68.2137Z" fill="#04134E"/>
<path d="M114.803 82.5616H112.986V84.3813H114.803V82.5616Z" fill="#04134E"/>
<path d="M114.679 87.2495H113.11V97.6141H114.679V87.2495Z" fill="#04134E"/>
<path d="M237.097 81.827C237.794 82.2764 238.632 82.5044 239.588 82.5044C240.502 82.5044 241.323 82.2764 242.027 81.827C242.764 81.357 243.215 80.7485 243.365 80.0256L243.431 79.7023H241.849L241.792 79.89C241.675 80.2639 241.423 80.5586 241.02 80.7881C240.6 81.0301 240.119 81.1503 239.588 81.1503C238.48 81.1503 237.729 80.7251 237.286 79.8519L237.211 79.703H235.643L235.733 80.0395C235.925 80.772 236.384 81.3732 237.097 81.827Z" fill="#04134E"/>
<path d="M235.08 94.6756V82.5602H233.427V97.6141H234.823L243.994 85.4987V97.6141H245.646V82.5602H244.25L235.08 94.6756Z" fill="#04134E"/>
<path d="M122.36 84.0748H126.668V97.6141H128.3V84.0748H132.627V82.5616H122.36V84.0748Z" fill="#04134E"/>
<path d="M134.224 97.6141H143.535V96.0994H135.855V90.784H142.398V89.2685H135.855V84.0749H143.535V82.5616H134.224V97.6141Z" fill="#04134E"/>
<path d="M155.37 82.5616H153.489L150.171 88.3836L146.87 82.5616H144.968L149.269 89.9035L144.679 97.6141H146.543L150.169 91.4152L153.794 97.6141H155.701L151.068 89.902L155.37 82.5616Z" fill="#04134E"/>
<path d="M166.02 89.2685H159.018V82.5616H157.387V97.6141H159.018V90.784H166.02V97.6141H167.651V82.5616H166.02V89.2685Z" fill="#04134E"/>
<path d="M177.802 82.1078C175.621 82.1078 173.73 82.8952 172.186 84.4458C170.641 85.9965 169.858 87.8953 169.858 90.0831C169.858 92.2796 170.641 94.1785 172.186 95.7291C173.73 97.2798 175.621 98.0672 177.802 98.0672C179.991 98.0672 181.884 97.2798 183.429 95.7291C184.975 94.1785 185.758 92.2796 185.758 90.0831C185.758 87.8953 184.976 85.9965 183.429 84.4458C181.884 82.8952 179.991 82.1078 177.802 82.1078ZM177.802 96.4674C176.062 96.4674 174.553 95.8391 173.315 94.5971C172.077 93.3552 171.45 91.8375 171.45 90.0838C171.45 88.3367 172.077 86.8205 173.315 85.58C174.553 84.3395 176.062 83.7083 177.802 83.7083C179.55 83.7083 181.063 84.3395 182.301 85.58C183.536 86.8198 184.165 88.3367 184.165 90.0838C184.165 91.8383 183.537 93.3559 182.301 94.5971C181.063 95.8384 179.55 96.4674 177.802 96.4674Z" fill="#04134E"/>
<path d="M189.129 88.4767C189.129 95.1771 187.676 96.0986 186.104 96.0986H185.47V97.6133H186.327C189.38 97.6133 190.742 94.9725 190.742 89.0471V84.0741H195.854V97.6133H197.486V82.5609H189.129V88.4767Z" fill="#04134E"/>
<path d="M207.636 82.1078C205.455 82.1078 203.565 82.8937 202.02 84.4458C200.475 85.9965 199.691 87.8939 199.691 90.0831C199.691 92.2796 200.475 94.1785 202.02 95.7291C203.565 97.2798 205.455 98.0672 207.636 98.0672C209.824 98.0672 211.719 97.2798 213.264 95.7291C214.809 94.1785 215.593 92.2796 215.593 90.0831C215.593 87.8939 214.809 85.9965 213.264 84.4458C211.719 82.8937 209.824 82.1078 207.636 82.1078ZM207.636 96.4674C205.895 96.4674 204.387 95.8391 203.148 94.5971C201.912 93.3559 201.284 91.8375 201.284 90.0838C201.284 88.3367 201.911 86.8205 203.148 85.58C204.386 84.3403 205.895 83.7083 207.636 83.7083C209.385 83.7083 210.897 84.3395 212.135 85.58C213.371 86.8198 213.999 88.3367 213.999 90.0838C213.999 91.8383 213.372 93.3559 212.135 94.5971C210.897 95.8384 209.385 96.4674 207.636 96.4674Z" fill="#04134E"/>
<path d="M217.798 97.6141H219.431V84.0749H226.908V82.5616H217.798V97.6141Z" fill="#04134E"/>
<path d="M230.387 82.5616H228.756V97.6141H230.387V82.5616Z" fill="#04134E"/>
<path d="M118.107 38.5267L114.155 29.9268L114.084 29.7677H112.316L117.258 40.4417L116.675 41.8399C116.192 42.9645 115.771 43.3099 114.867 43.3099H113.748V44.826H115.111C116.875 44.826 117.651 43.4748 118.079 42.4609L123.503 29.7677H121.738L118.107 38.5267Z" fill="#04134E"/>
<path d="M134.507 36.4768H127.504V29.7677H125.873V44.826H127.504V37.9923H134.507V44.826H136.14V29.7677H134.507V36.4768Z" fill="#04134E"/>
<path d="M141.625 29.7677H139.994V44.826H141.625V29.7677Z" fill="#04134E"/>
<path d="M155.749 40.6419C155.749 39.4205 155.337 38.4212 154.52 37.666C154.242 37.4182 154.012 37.2584 153.666 37.0883C153.921 36.957 154.11 36.8214 154.343 36.6161C155.116 35.883 155.524 34.9071 155.524 33.7891C155.524 31.3843 153.735 29.7677 151.071 29.7677H145.481V44.826H151.234C154.018 44.826 155.749 43.2211 155.749 40.6419ZM154.115 40.6001C154.115 42.2717 152.965 43.3091 151.111 43.3091H147.113V37.8904H151.111C152.965 37.8911 154.115 38.9292 154.115 40.6001ZM150.949 36.3756H147.113V31.2839H150.949C152.819 31.2839 153.891 32.2135 153.891 33.8323C153.892 35.4482 152.819 36.3756 150.949 36.3756Z" fill="#04134E"/>
<path d="M168.392 43.3091H160.711V37.9923H167.254V36.4768H160.711V31.2839H168.392V29.7677H159.08V44.826H168.392V43.3091Z" fill="#04134E"/>
<path d="M173.15 38.666H177.089C179.862 38.666 181.724 36.8778 181.724 34.2165C181.724 31.5588 179.862 29.7691 177.089 29.7691H171.518V44.826H173.15V38.666ZM173.15 31.2838H176.967C178.134 31.2838 180.092 31.6673 180.092 34.2165C180.092 36.7686 178.133 37.1491 176.967 37.1491H173.15V31.2838Z" fill="#04134E"/>
<path d="M191.509 45.2769C193.548 45.2769 195.349 44.5797 196.857 43.205L197.166 42.922L195.967 41.856L195.719 42.0752C194.526 43.1376 193.11 43.672 191.509 43.672C189.766 43.672 188.257 43.0459 187.019 41.8105C185.784 40.573 185.157 39.0539 185.157 37.2987C185.157 35.5457 185.783 34.0325 187.019 32.7964C188.257 31.5588 189.767 30.9334 191.509 30.9334C193.109 30.9334 194.526 31.4701 195.719 32.5302L195.967 32.7502L197.165 31.6856L196.86 31.4019C195.349 30.0199 193.55 29.3183 191.509 29.3183C189.316 29.3183 187.423 30.1079 185.882 31.6622C184.341 33.2165 183.561 35.1117 183.561 37.2987C183.561 39.5011 184.341 41.3985 185.884 42.9455C187.424 44.4895 189.316 45.2769 191.509 45.2769Z" fill="#04134E"/>
<path d="M202.592 41.8867V29.7691H200.94V44.826H202.334L211.506 32.7083V44.826H213.158V29.7691H211.762L202.592 41.8867Z" fill="#04134E"/>
<path d="M215.307 31.2839H219.614V44.826H221.244V31.2839H225.572V29.7677H215.307V31.2839Z" fill="#04134E"/>
<path d="M237.303 43.3091H229.623V37.9923H236.166V36.4768H229.623V31.2839H237.303V29.7677H227.994V44.826H237.303V43.3091Z" fill="#04134E"/>
<path d="M239.726 29.7677V31.2839H244.032V44.826H245.662V31.2839H249.99V29.7677H239.726Z" fill="#04134E"/>
</svg>
