<?xml version="1.0" encoding="utf-8"?>
<!-- Generator: Adobe Illustrator 16.0.0, SVG Export Plug-In . SVG Version: 6.00 Build 0)  -->
<!DOCTYPE svg PUBLIC "-//W3C//DTD SVG 1.1//EN" "http://www.w3.org/Graphics/SVG/1.1/DTD/svg11.dtd">
<svg version="1.1" id="Шар_1" xmlns="http://www.w3.org/2000/svg" xmlns:xlink="http://www.w3.org/1999/xlink" x="0px" y="0px" width="394.016px" height="175.748px" viewBox="0 0 394.016 175.748" enable-background="new 0 0 394.016 175.748" xml:space="preserve">
	<g>
		<g>
			<g>
				<rect x="46.673" y="34.167" fill="#04134E" width="28.347" height="28.347" />
				<rect x="46.673" y="73.852" fill="#04134E" width="28.347" height="28.347" />
				<rect x="46.673" y="113.537" fill="#04134E" width="28.347" height="28.346" />
				<polygon fill="#04134E" points="143.052,34.167 86.358,34.167 86.358,141.882 114.705,141.882 114.705,62.514 143.052,62.514 			
				" />
			</g>
			<path fill="#04134E" d="M162.477,155.638H27.248V20.412h135.229V155.638z M29.248,153.638h131.229V22.412H29.248V153.638z" />
		</g>
		<g>
			<g>
				<g>
					<path fill="#04134E" d="M197.531,25.013h-11.244v7.599c0,4.928-0.695,8.1-2.395,10.871h-1.971v7.074h2.234V45.55h13.51v5.007
					h2.231v-7.074h-2.365V25.013z M195.299,43.482h-8.906c1.356-2.53,2.044-5.732,2.044-9.536V27.08h6.862V43.482z" />
					<polygon fill="#04134E" points="217.07,43.482 206.556,43.482 206.556,36.231 215.511,36.231 215.511,34.164 206.556,34.164 
					206.556,27.08 217.07,27.08 217.07,25.013 204.324,25.013 204.324,45.55 217.07,45.55 				" />
					<path fill="#04134E" d="M224.171,37.148h5.393c3.795,0,6.346-2.439,6.346-6.066c0-3.629-2.551-6.067-6.346-6.067h-7.625V45.55
					h2.232V37.148z M224.171,27.08h5.226c1.597,0,4.279,0.521,4.279,4.002c0,3.478-2.683,4-4.279,4h-5.226V27.08z" />
					<path fill="#04134E" d="M268.682,40.736h8.72l1.725,4.813h2.394l-7.468-20.298l-0.088-0.239h-1.845l-7.558,20.537h2.396
					L268.682,40.736z M273.041,28.477l3.625,10.193h-7.248L273.041,28.477z" />
					<path fill="#04134E" d="M299.498,39.844c0-1.666-0.563-3.03-1.68-4.061c-0.379-0.337-0.696-0.552-1.17-0.786
					c0.349-0.18,0.608-0.366,0.927-0.646c1.058-0.997,1.617-2.33,1.617-3.853c0-3.28-2.449-5.486-6.094-5.486h-7.653V45.55h7.875
					C297.13,45.55,299.498,43.361,299.498,39.844z M297.263,39.788c0,2.28-1.574,3.694-4.112,3.694h-5.474v-7.389h5.474
					C295.689,36.094,297.263,37.509,297.263,39.788z M292.931,34.025h-5.254V27.08h5.254c2.558,0,4.026,1.268,4.026,3.476
					C296.958,32.76,295.489,34.025,292.931,34.025z" />
					<polygon fill="#04134E" points="316.469,34.164 306.884,34.164 306.884,25.015 304.652,25.015 304.652,45.55 306.884,45.55 
					306.884,36.231 316.469,36.231 316.469,45.55 318.704,45.55 318.704,25.015 316.469,25.015 				" />
					<polygon fill="#04134E" points="338.876,29.023 338.876,45.55 341.138,45.55 341.138,25.015 339.23,25.015 326.675,41.541 
					326.675,25.015 324.414,25.015 324.414,45.55 326.322,45.55 				" />
					<g>
						<path fill="#04134E" d="M351.871,24.015c0.955,0.612,2.103,0.922,3.411,0.922c1.252,0,2.374-0.31,3.34-0.922
						c1.008-0.643,1.624-1.47,1.83-2.456l0.092-0.443h-2.167l-0.078,0.257c-0.16,0.511-0.506,0.911-1.057,1.226
						c-0.574,0.328-1.234,0.494-1.96,0.494c-1.516,0-2.545-0.58-3.153-1.772l-0.101-0.204h-2.146l0.122,0.463
						C350.269,22.574,350.897,23.395,351.871,24.015z" />
						<polygon fill="#04134E" points="349.11,41.541 349.11,25.015 346.849,25.015 346.849,45.55 348.757,45.55 361.314,29.023 
						361.314,45.55 363.574,45.55 363.574,25.015 361.664,25.015 					" />
					</g>
					<polygon fill="#04134E" points="262.96,45.55 254.032,34.835 262.685,25.015 259.891,25.015 251.37,34.852 260.193,45.55 				
					" />
					<polygon fill="#04134E" points="240.583,25.143 240.472,25.015 237.682,25.015 246.333,34.862 237.404,45.55 240.171,45.55 
					248.998,34.852 				" />
					<rect x="249.052" y="25.015" fill="#04134E" width="2.263" height="20.535" />
				</g>
			</g>
			<g>
				<polygon fill="#04134E" points="181.921,117.552 194.668,117.552 194.668,115.486 184.153,115.486 184.153,108.238 
				193.109,108.238 193.109,106.169 184.153,106.169 184.153,99.087 194.668,99.087 194.668,97.019 181.921,97.019 			" />
				<polygon fill="#04134E" points="214.565,97.019 211.528,97.019 202.816,105.996 202.816,97.019 200.582,97.019 200.582,117.552 
				202.816,117.552 202.816,107.753 212.056,117.439 212.164,117.552 215.306,117.552 204.798,106.841 			" />
				<path fill="#04134E" d="M227.411,96.082c-2.987,0-5.575,1.074-7.688,3.189c-2.116,2.115-3.188,4.703-3.188,7.689
				c0,2.994,1.072,5.586,3.188,7.701c2.113,2.117,4.701,3.188,7.688,3.188c2.997,0,5.589-1.07,7.703-3.188
				c2.116-2.115,3.188-4.707,3.188-7.701c0-2.986-1.071-5.574-3.188-7.689C233,97.156,230.408,96.082,227.411,96.082z
				 M227.411,115.669c-2.384,0-4.45-0.859-6.144-2.555c-1.691-1.691-2.552-3.762-2.552-6.154c0-2.383,0.86-4.449,2.552-6.143
				c1.693-1.693,3.76-2.555,6.144-2.555c2.391,0,4.464,0.861,6.157,2.555s2.552,3.76,2.552,6.143c0,2.393-0.858,4.463-2.552,6.154
				C231.875,114.81,229.801,115.669,227.411,115.669z" />
				<polygon fill="#04134E" points="255.894,106.08 246.309,106.08 246.309,96.929 244.076,96.929 244.076,117.462 246.309,117.462 
				246.309,108.146 255.894,108.146 255.894,117.462 258.128,117.462 258.128,96.929 255.894,96.929 			" />
				<path fill="#04134E" d="M274.757,96.082c-2.987,0-5.574,1.074-7.688,3.189c-2.116,2.115-3.188,4.703-3.188,7.689
				c0,2.994,1.071,5.586,3.188,7.701c2.114,2.117,4.701,3.188,7.688,3.188c2.996,0,5.588-1.07,7.703-3.188
				c2.115-2.115,3.188-4.707,3.188-7.701c0-2.986-1.073-5.574-3.188-7.689S277.753,96.082,274.757,96.082z M274.757,115.669
				c-2.383,0-4.449-0.859-6.145-2.555c-1.691-1.691-2.55-3.762-2.55-6.154c0-2.383,0.858-4.449,2.55-6.143
				c1.695-1.693,3.762-2.555,6.145-2.555c2.392,0,4.463,0.861,6.158,2.555c1.691,1.693,2.552,3.76,2.552,6.143
				c0,2.393-0.86,4.463-2.552,6.154C279.22,114.81,277.149,115.669,274.757,115.669z" />
				<polygon fill="#04134E" points="307.961,96.929 300.928,106.152 294.042,97.144 293.88,96.929 291.402,96.929 291.402,117.455 
				293.642,117.455 293.642,100.33 300.928,109.863 308.199,100.333 308.199,117.455 310.44,117.455 310.44,96.929 			" />
				<rect x="317.357" y="96.929" fill="#04134E" width="2.234" height="20.533" />
				<polygon fill="#04134E" points="340.492,96.929 337.457,96.929 328.742,105.904 328.742,96.929 326.509,96.929 326.509,117.462 
				328.742,117.462 328.742,107.664 337.985,117.349 338.092,117.462 341.236,117.462 330.726,106.75 			" />
				<polygon fill="#04134E" points="349.087,113.453 349.087,96.927 346.828,96.927 346.828,117.462 348.735,117.462 
				361.291,100.931 361.291,117.462 363.552,117.462 363.552,96.927 361.642,96.927 			" />
			</g>
			<g>
				<g>
					<rect x="181.919" y="133.023" fill="#04134E" width="2.487" height="2.482" />
					<rect x="182.088" y="139.417" fill="#04134E" width="2.148" height="14.137" />
				</g>
				<g>
					<g>
						<path fill="#04134E" d="M351.818,132.021c0.955,0.613,2.102,0.924,3.41,0.924c1.252,0,2.375-0.311,3.34-0.924
						c1.008-0.641,1.625-1.471,1.831-2.457l0.091-0.441h-2.166l-0.079,0.256c-0.159,0.51-0.505,0.912-1.056,1.225
						c-0.575,0.33-1.234,0.494-1.961,0.494c-1.516,0-2.545-0.58-3.151-1.771l-0.102-0.203h-2.147l0.123,0.459
						C350.214,130.582,350.843,131.402,351.818,132.021z" />
						<polygon fill="#04134E" points="349.057,149.546 349.057,133.021 346.794,133.021 346.794,153.554 348.705,153.554 
						361.26,137.029 361.26,153.554 363.521,153.554 363.521,133.021 361.611,133.021 					" />
					</g>
					<polygon fill="#04134E" points="194.751,135.087 200.648,135.087 200.648,153.554 202.882,153.554 202.882,135.087 
					208.806,135.087 208.806,133.023 194.751,133.023 				" />
					<polygon fill="#04134E" points="210.992,153.554 223.738,153.554 223.738,151.488 213.225,151.488 213.225,144.238 
					222.181,144.238 222.181,142.171 213.225,142.171 213.225,135.087 223.738,135.087 223.738,133.023 210.992,133.023 				" />
					<polygon fill="#04134E" points="239.939,133.023 237.364,133.023 232.822,140.964 228.304,133.023 225.7,133.023 
					231.587,143.037 225.304,153.554 227.856,153.554 232.82,145.099 237.782,153.554 240.392,153.554 234.05,143.035 				" />
					<polygon fill="#04134E" points="254.519,142.171 244.933,142.171 244.933,133.023 242.7,133.023 242.7,153.554 244.933,153.554 
					244.933,144.238 254.519,144.238 254.519,153.554 256.752,153.554 256.752,133.023 254.519,133.023 				" />
					<path fill="#04134E" d="M270.648,132.404c-2.986,0-5.575,1.074-7.688,3.189c-2.116,2.115-3.188,4.705-3.188,7.689
					c0,2.996,1.072,5.586,3.188,7.701c2.113,2.115,4.702,3.189,7.688,3.189c2.996,0,5.588-1.074,7.703-3.189
					c2.116-2.115,3.188-4.705,3.188-7.701c0-2.984-1.071-5.574-3.188-7.689C276.236,133.478,273.644,132.404,270.648,132.404z
					 M270.648,151.99c-2.383,0-4.448-0.857-6.143-2.551s-2.553-3.764-2.553-6.156c0-2.383,0.858-4.451,2.553-6.143
					s3.76-2.553,6.143-2.553c2.393,0,4.464,0.861,6.158,2.553c1.691,1.691,2.552,3.76,2.552,6.143c0,2.393-0.86,4.463-2.552,6.156
					C275.112,151.132,273.041,151.99,270.648,151.99z" />
					<path fill="#04134E" d="M286.154,141.091c0,9.139-1.99,10.396-4.141,10.396h-0.868v2.066h1.173
					c4.179,0,6.043-3.602,6.043-11.684v-6.783h6.999v18.467h2.233v-20.531h-11.439V141.091z" />
					<path fill="#04134E" d="M311.488,132.404c-2.986,0-5.573,1.072-7.688,3.189c-2.115,2.115-3.188,4.703-3.188,7.689
					c0,2.996,1.073,5.586,3.188,7.701s4.702,3.189,7.688,3.189c2.996,0,5.59-1.074,7.705-3.189c2.114-2.115,3.188-4.705,3.188-7.701
					c0-2.986-1.074-5.574-3.188-7.689C317.078,133.476,314.484,132.404,311.488,132.404z M311.488,151.99
					c-2.383,0-4.448-0.857-6.143-2.551c-1.693-1.693-2.552-3.764-2.552-6.156c0-2.383,0.858-4.451,2.552-6.143
					c1.694-1.691,3.76-2.553,6.143-2.553c2.395,0,4.465,0.861,6.159,2.553c1.692,1.691,2.552,3.76,2.552,6.143
					c0,2.393-0.859,4.463-2.552,6.156C315.953,151.132,313.882,151.99,311.488,151.99z" />
					<polygon fill="#04134E" points="325.4,153.554 327.635,153.554 327.635,135.087 337.871,135.087 337.871,133.023 325.4,133.023 
									" />
					<rect x="340.4" y="133.023" fill="#04134E" width="2.233" height="20.531" />
				</g>
			</g>
			<path fill="#04134E" d="M188.929,72.961l-5.41-11.73l-0.098-0.217h-2.42l6.765,14.559l-0.798,1.907
			c-0.66,1.534-1.237,2.005-2.474,2.005h-1.533v2.068h1.867c2.414,0,3.476-1.843,4.062-3.226l7.425-17.313h-2.415L188.929,72.961z" />
			<polygon fill="#04134E" points="211.38,70.165 201.793,70.165 201.793,61.014 199.56,61.014 199.56,81.553 201.793,81.553 
			201.793,72.232 211.38,72.232 211.38,81.553 213.615,81.553 213.615,61.014 211.38,61.014 		" />
			<rect x="218.891" y="61.014" fill="#04134E" width="2.233" height="20.539" />
			<path fill="#04134E" d="M240.458,75.846c0-1.666-0.563-3.029-1.682-4.059c-0.38-0.338-0.695-0.556-1.169-0.788
			c0.349-0.179,0.608-0.364,0.926-0.644c1.059-1,1.617-2.331,1.617-3.856c0-3.28-2.449-5.485-6.095-5.485h-7.653v20.539h7.875
			C238.089,81.553,240.458,79.364,240.458,75.846z M238.222,75.789c0,2.28-1.575,3.695-4.113,3.695h-5.473v-7.391h5.473
			C236.647,72.094,238.222,73.51,238.222,75.789z M233.888,70.027h-5.252v-6.945h5.252c2.559,0,4.027,1.268,4.027,3.476
			C237.916,68.762,236.447,70.027,233.888,70.027z" />
			<polygon fill="#04134E" points="257.766,79.484 247.251,79.484 247.251,72.232 256.208,72.232 256.208,70.165 247.251,70.165 
			247.251,63.082 257.766,63.082 257.766,61.014 245.018,61.014 245.018,81.553 257.766,81.553 		" />
			<path fill="#04134E" d="M264.279,73.151h5.393c3.795,0,6.345-2.439,6.345-6.069c0-3.625-2.55-6.066-6.345-6.066h-7.627v20.537
			h2.234V73.151z M264.279,63.082h5.225c1.598,0,4.279,0.523,4.279,4c0,3.481-2.682,4-4.279,4h-5.225V63.082z" />
			<path fill="#04134E" d="M289.412,82.168c2.791,0,5.256-0.951,7.321-2.826l0.423-0.386l-1.642-1.454l-0.339,0.299
			c-1.633,1.449-3.572,2.178-5.764,2.178c-2.385,0-4.452-0.854-6.146-2.539c-1.691-1.688-2.549-3.76-2.549-6.154
			c0-2.391,0.857-4.455,2.549-6.141c1.694-1.688,3.762-2.541,6.146-2.541c2.191,0,4.131,0.732,5.764,2.178l0.339,0.3l1.64-1.452
			l-0.418-0.387c-2.068-1.885-4.531-2.842-7.324-2.842c-3.002,0-5.594,1.077-7.703,3.197c-2.11,2.12-3.178,4.705-3.178,7.688
			c0,3.004,1.068,5.592,3.18,7.702C283.82,81.094,286.41,82.168,289.412,82.168z" />
			<polygon fill="#04134E" points="304.583,77.544 304.583,61.016 302.322,61.016 302.322,81.553 304.23,81.553 316.786,65.025 
			316.786,81.553 319.048,81.553 319.048,61.016 317.137,61.016 		" />
			<polygon fill="#04134E" points="321.989,63.082 327.885,63.082 327.885,81.553 330.117,81.553 330.117,63.082 336.042,63.082 
			336.042,61.014 321.989,61.014 		" />
			<polygon fill="#04134E" points="352.101,79.484 341.587,79.484 341.587,72.232 350.544,72.232 350.544,70.165 341.587,70.165 
			341.587,63.082 352.101,63.082 352.101,61.014 339.357,61.014 339.357,81.553 352.101,81.553 		" />
			<polygon fill="#04134E" points="355.417,61.014 355.417,63.082 361.312,63.082 361.312,81.553 363.544,81.553 363.544,63.082 
			369.468,63.082 369.468,61.014 		" />
		</g>
	</g>
</svg>